# xmcd
#
# Track frame offsets:
#	150
#	19364
#	32269
#	44040
#	58073
#	71879
#	83977
#	98253
#	111628
#	126190
#	138720
#	151933
#
# Disc length: 2251 seconds
#
# Revision: 1
# Processed by: cddbd v1.5.1PL0 Copyright (c) Steve Scherf et al.
# Submitted via: audiograbber 1.83.01
#
DISCID=aa08c90c
DTITLE=Pam Hicks - Your Dream or Mine
DYEAR=2005
DGENRE=Country
TTITLE0=Your Dream or Mine
TTITLE1=Where Are You Going With My Heart
TTITLE2=What a Fool
TTITLE3=Allmost Gone
TTITLE4=Too Blue
TTITLE5=That`s What I am Working On Tonight
TTITLE6=You Must Be Lonly Again
TTITLE7=Up a Tree
TTITLE8=What On Earth Would You Do
TTITLE9=He Loved The Leaving Out of Me
TTITLE10=Let That Lyin` Dog Sleep
TTITLE11=Things To Do Before I Die
EXTD=
EXTT0=
EXTT1=
EXTT2=
EXTT3=
EXTT4=
EXTT5=
EXTT6=
EXTT7=
EXTT8=
EXTT9=
EXTT10=
EXTT11=
PLAYORDER=
